# xmcd
# 
# Track frame offsets:
#     150
#     18609
#     32971
#     45140
#     65596
#     80188
#     96847
#     113417
#     123583
#     137198
#     156858
#     173248
#     183271
#     199288
#     219345
#     235847
#     255175
#     274023
#     288781
#     334306
# 
# Disc length: 4661
# 
# Revision: 2
# Processed by: cddbd v1.5.2PL0 Copyright (c) Steve Scherf et al.
# Submitted via: fre:ac v1.0.31
# 
DISCID=1d123314
DTITLE=Lee Scratch Perry - Lee "Scratch" Perry - I Am the Upsetter Disc 4 1974 To 1978
DYEAR=2005
DGENRE=Reggae
TTITLE0=Tommy McCook and The Upsetters - Cloak and Dagger
TTITLE1=Tommy McCook and The Upsetters - Rude Walking
TTITLE2=Lee Perry and The Upsetters - Caveman Skank
TTITLE3=The Upsetters - Black Panta
TTITLE4=The Upsetting Upsetters - Flashing Echo
TTITLE5=Lee Perry and The Upsetters - Kojak
TTITLE6=Lee Perry and The Upsetters - Bush Weed
TTITLE7=The Mighty Upsetter - Enter The Dragon
TTITLE8=The Mighty Upsetter - Fungea
TTITLE9=Lee Perry and The Upsetters - Judgement Day
TTITLE10=Vin Gordon and The Upsetters - Voodoo Man
TTITLE11=The Upsetters - Kingdom Of Dub
TTITLE12=The Upsetters - Dubism
TTITLE13=The Upsetters - Lizard Stick
TTITLE14=The Upsetters - Dub Fu Ye Rights
TTITLE15=The Upsetters - Fundation Solid
TTITLE16=Augustus Pablo - Bobylon Thief Dub
TTITLE17=The Upsetters - Vampire
TTITLE18=Augustus Pablo and The Upsetters - Lover Dub
TTITLE19=Lee 'Scratch' Perry and The Upsetters - Huzza Hana
EXTD=
EXTT0=
EXTT1=
EXTT2=
EXTT3=
EXTT4=
EXTT5=
EXTT6=
EXTT7=
EXTT8=
EXTT9=
EXTT10=
EXTT11=
EXTT12=
EXTT13=
EXTT14=
EXTT15=
EXTT16=
EXTT17=
EXTT18=
EXTT19=
PLAYORDER=
